HIERARCHY
ROOT Hip
{
  OFFSET 0.0 0.0 0.0
  CHANNELS 6 Xposition Yposition Zposition Xrotation Yrotation Zrotation
  JOINT LowerSpine
  {
    OFFSET 0.0 0.061367 -0.03653
    CHANNELS 3 Xrotation Yrotation Zrotation
    JOINT MiddleSpine
    {
      OFFSET 0.0 0.056002 0.002633
      CHANNELS 3 Xrotation Yrotation Zrotation
      JOINT Chest
      {
        OFFSET 0.0 0.069296 -0.013882
        CHANNELS 3 Xrotation Yrotation Zrotation
        JOINT Neck
        {
          OFFSET 0.0 0.156156 -0.002923
          CHANNELS 3 Xrotation Yrotation Zrotation
          JOINT Head
          {
            OFFSET 0.0 0.088183 0.023986
            CHANNELS 3 Xrotation Yrotation Zrotation
            End Site
            {
              OFFSET 1e-06 0.123215 0.003678
            }
          }
        }
        JOINT LClavicle
        {
          OFFSET 0.014189 0.150698 0.046467
          CHANNELS 3 Xrotation Yrotation Zrotation
          JOINT LShoulder
          {
            OFFSET 0.082893 0.021616 -0.034976
            CHANNELS 3 Xrotation Yrotation Zrotation
            JOINT LForearm
            {
              OFFSET 0.195645 -0.000695 -0.001695
              CHANNELS 3 Xrotation Yrotation Zrotation
              JOINT LHand
              {
                OFFSET 0.163209 0.000474 -0.000977
                CHANNELS 3 Xrotation Yrotation Zrotation
                End Site
                {
                  OFFSET 0.0 0.006864 0.0
                }
              }
            }
          }
        }
        JOINT RClavicle
        {
          OFFSET -0.014189 0.150698 0.046467
          CHANNELS 3 Xrotation Yrotation Zrotation
          JOINT RShoulder
          {
            OFFSET -0.082908 0.021619 -0.034982
            CHANNELS 3 Xrotation Yrotation Zrotation
            JOINT RForearm
            {
              OFFSET -0.195645 -0.000695 -0.001695
              CHANNELS 3 Xrotation Yrotation Zrotation
              JOINT RHand
              {
                OFFSET -0.163209 0.000474 -0.000977
                CHANNELS 3 Xrotation Yrotation Zrotation
                End Site
                {
                  OFFSET 0.0 0.006864 0.0
                }
              }
            }
          }
        }
      }
    }
  }
  JOINT RThigh
  {
    OFFSET -0.072558 0.02774 -0.005953
    CHANNELS 3 Xrotation Yrotation Zrotation
    JOINT RShin
    {
      OFFSET -0.005253 -0.285537 0.0
      CHANNELS 3 Xrotation Yrotation Zrotation
      JOINT RFoot
      {
        OFFSET 0.0 -0.28038 0.0
        CHANNELS 3 Xrotation Yrotation Zrotation
        JOINT RToe
        {
          OFFSET 0.0 -0.030816 0.064441
          CHANNELS 3 Xrotation Yrotation Zrotation
          End Site
          {
            OFFSET 0.0 0.0 0.043231
          }
        }
      }
    }
  }
  JOINT LThigh
  {
    OFFSET 0.072557 0.027741 -0.005953
    CHANNELS 3 Xrotation Yrotation Zrotation
    JOINT LShin
    {
      OFFSET 0.005253 -0.285539 0.0
      CHANNELS 3 Xrotation Yrotation Zrotation
      JOINT LFoot
      {
        OFFSET 0.0 -0.28038 0.0
        CHANNELS 3 Xrotation Yrotation Zrotation
        JOINT LToe
        {
          OFFSET 0.0 -0.030816 0.064441
          CHANNELS 3 Xrotation Yrotation Zrotation
          End Site
          {
            OFFSET 0.0 0.0 0.043231
          }
        }
      }
    }
  }
}
MOTION
Frames: 10
Frame Time: 0.03333333333333333
-0.011197 0.580955 0.011239 7.77844 5.605411 15.358406 -15.325866 14.222062 -10.626331 4.784863 -0.499042 -23.93825 -3.615296 -12.911255 12.056152 -4.066658 -23.836262 -2.689188 -7.476351 22.809834 4.734567 -3.850481 22.988256 -16.503569 17.535107 -15.190189 -39.097553 -7.675011 -36.426331 -23.028009 -15.042603 -14.258647 12.380001 15.014744 -2.477743 30.174372 14.422552 27.83285 40.460045 -25.294744 53.856873 33.499737 19.970402 6.401078 12.063352 -9.903193 -4.616406 -19.453926 3.87131 12.871807 13.456336 -11.910467 -7.972574 18.737576 6.774112 -19.523283 -12.321457 -2.589999 9.36726 -14.296141 -1.746538 24.577034 9.682593 10.071857 9.160814 -17.70488 -13.49091 19.060059 8.713095 
-0.023285 0.578284 0.014474 8.011209 4.863096 17.623487 -12.972579 15.415778 -13.392847 2.567306 -0.921067 -26.389046 -3.884849 -14.736633 13.516239 1.420483 -23.521244 -5.535289 -5.872541 24.684128 5.772305 -7.729019 23.235991 -15.337317 19.317133 -11.973799 -36.730068 -7.073559 -30.272993 -26.127712 -13.746589 -15.828091 13.62584 16.083872 5.144899 29.562763 13.99027 26.306267 38.539249 -25.01046 54.033398 37.757912 21.417387 7.261208 11.813369 -9.342095 -2.688802 -19.720627 3.730566 15.528281 13.240986 -11.813932 -7.481297 20.55949 6.924948 -20.760212 -12.743706 -2.142519 13.566822 -17.117508 -3.018961 24.679729 13.435421 11.7482 8.904375 -18.176207 -12.850568 21.013529 9.792532 
-0.032967 0.574979 0.010261 7.678243 5.686708 19.797161 -11.396405 16.335443 -15.519496 2.437122 -0.959404 -27.773418 -4.424406 -16.25514 13.636103 3.855526 -24.432583 -5.646215 -5.10427 25.842222 5.955604 -9.548573 23.954489 -13.691594 18.9786 -11.118051 -35.625946 -7.513053 -30.437645 -27.547314 -13.356175 -16.614513 14.547578 16.425879 6.403763 30.356537 14.32417 27.126266 37.871563 -21.287739 53.193535 37.484879 22.359207 7.50577 11.93391 -10.673902 -2.737916 -21.461277 4.514833 16.049294 14.939371 -12.679352 -7.302589 21.470957 7.699777 -21.279491 -13.139555 -3.359606 14.32568 -18.283936 -2.471877 24.930525 14.608938 13.065581 8.393348 -19.058565 -12.832563 22.087208 10.569008 
-0.034788 0.572733 0.007776 7.620024 5.554838 20.137606 -10.927011 16.445549 -16.253059 2.550953 -0.673872 -28.200851 -4.466018 -16.40901 13.541899 4.574575 -24.711283 -5.680622 -5.195236 26.235065 5.931704 -10.135245 24.372181 -12.893769 18.322611 -10.769284 -35.421391 -7.652275 -30.373148 -28.197382 -13.367494 -16.913357 14.850483 16.585569 6.477552 30.933867 14.3381 28.224806 37.340553 -17.732649 51.296928 35.999264 22.746181 7.494622 11.976136 -11.241104 -2.208893 -22.286324 5.151921 16.248236 15.852884 -13.028819 -7.478594 21.741457 7.785854 -21.560223 -13.391593 -3.781845 15.095638 -18.372101 -2.341942 25.663883 14.957705 13.259925 8.345557 -19.555851 -13.211658 22.299887 10.865219 
-0.033805 0.571719 0.006581 7.457026 5.449059 20.214705 -10.64092 16.574343 -16.916025 2.662161 -0.177273 -28.607866 -3.988024 -16.252815 14.001284 5.145346 -25.050549 -5.686543 -5.434722 26.632927 5.908759 -10.61307 24.88489 -12.215047 17.466026 -10.324009 -35.161037 -8.131964 -30.719732 -28.953405 -13.462711 -17.204069 15.13448 16.752031 6.161983 31.755632 13.768945 28.986111 36.929081 -14.526373 48.679569 34.419643 23.11698 7.505651 12.110148 -11.535886 -1.480716 -23.114954 5.340024 16.708069 16.773232 -13.409362 -7.837518 21.921553 7.713432 -21.962828 -13.630133 -3.48685 15.958387 -18.898357 -2.651402 26.525026 15.445667 13.09226 8.416985 -20.14929 -13.499869 22.604427 11.108252 
-0.033715 0.570906 0.007443 7.349748 5.312335 20.121864 -10.465112 16.560095 -17.345394 2.760465 0.224873 -28.743387 -3.452119 -16.058743 14.652233 5.396263 -25.28808 -5.722701 -5.610272 26.829361 5.897176 -10.911265 25.108395 -11.767802 16.851923 -10.292998 -35.191833 -8.481564 -30.603609 -29.255299 -13.527761 -17.353634 15.293301 16.758186 5.947796 32.398991 13.035137 29.16832 36.786926 -12.409266 46.03376 33.038017 23.338383 7.494232 12.177532 -11.565838 -1.002673 -23.501488 5.264156 16.996582 17.396679 -13.885225 -8.085821 21.943569 7.647238 -22.196501 -13.777191 -3.134028 16.231972 -19.426634 -3.026148 26.768127 15.913127 12.782151 8.497601 -20.540531 -13.61159 22.784931 11.284069 
-0.035106 0.570043 0.007308 7.433297 5.237422 20.11928 -10.344337 16.52581 -17.526693 2.776095 0.534695 -28.763361 -2.980513 -15.801832 15.092141 5.465918 -25.379959 -5.772113 -5.803476 26.860708 5.895264 -11.006886 25.221657 -11.434384 16.447813 -10.395146 -35.359024 -8.660064 -30.776306 -29.432655 -13.581505 -17.409 15.315938 16.669954 5.677151 32.945942 12.477811 29.634768 36.674042 -10.365762 43.462692 31.520531 23.411304 7.458498 12.21001 -11.691536 -0.55061 -23.694817 5.254075 17.10405 17.878368 -14.387498 -8.204453 21.872206 7.499717 -22.308174 -13.864459 -3.204887 16.398079 -19.627026 -3.203436 26.928244 16.167122 12.551638 8.595801 -20.812695 -13.683888 22.819357 11.352934 
-0.036332 0.569079 0.006379 7.643262 5.208549 20.173889 -10.287271 16.514322 -17.608171 2.748121 0.804011 -28.779444 -2.609756 -15.567435 15.442462 5.361073 -25.429049 -5.81515 -5.985544 26.859983 5.904171 -11.052116 25.320742 -11.13101 16.207867 -10.491879 -35.54208 -8.816088 -31.267729 -29.672375 -13.639897 -17.444838 15.303356 16.567663 5.421533 33.460407 12.16081 30.193777 36.476181 -8.741057 41.245663 30.245373 23.427965 7.429885 12.266484 -11.939451 -0.097239 -23.925777 5.302972 17.139822 18.311869 -14.818159 -8.276659 21.794985 7.314707 -22.393997 -13.937694 -3.555891 16.517603 -19.667572 -3.173749 27.096588 16.273491 12.368551 8.630863 -21.078066 -13.752724 22.81361 11.389869 
-0.037029 0.568188 0.004786 7.837366 5.220046 20.260788 -10.225138 16.529051 -17.632872 2.721465 1.031481 -28.773491 -2.308159 -15.375523 15.718509 5.225431 -25.447441 -5.880168 -6.146674 26.844915 5.910364 -11.094361 25.356703 -10.890857 16.060675 -10.51261 -35.774952 -8.973433 -31.766584 -29.84461 -13.690114 -17.462534 15.279376 16.469225 5.25179 33.845566 11.895129 30.581381 36.29697 -7.662719 39.51207 29.295549 23.413162 7.410686 12.318405 -12.185022 0.349422 -24.067097 5.36513 17.201029 18.563299 -15.151964 -8.340825 21.695858 7.147221 -22.454107 -13.994622 -3.982009 16.546961 -19.642891 -3.008348 27.190027 16.277527 12.181363 8.667882 -21.271736 -13.787859 22.7925 11.416254 
-0.037405 0.567652 0.003208 8.063827 5.329159 20.305401 -10.18082 16.531206 -17.619438 2.681262 1.214548 -28.759045 -2.077368 -15.198747 15.936538 5.136965 -25.444941 -5.940803 -6.254753 26.824055 5.918041 -11.122375 25.367039 -10.683564 15.965652 -10.481333 -35.997303 -9.123469 -32.216125 -29.960735 -13.733581 -17.463968 15.254878 16.395355 5.104618 34.125164 11.672915 30.975222 36.152805 -6.917832 38.122757 28.57472 23.388735 7.385322 12.362365 -12.448227 0.782294 -24.151487 5.403666 17.326832 18.722498 -15.425257 -8.435254 21.580027 7.012486 -22.499269 -14.04143 -4.415829 16.513786 -19.619589 -2.876367 27.282383 16.242264 12.021819 8.698185 -21.415714 -13.808725 22.763336 11.438051 
